Coordinates
version=1
nRows=14
nColumns=24
inDegrees=yes

Units are S.I. units (second, meters, Newtons, ...)
Angles are in degrees.

endheader
time	pelvis_tilt	pelvis_list	pelvis_rotation	pelvis_tx	pelvis_ty	pelvis_tz	hip_flexion_r	hip_adduction_r	hip_rotation_r	knee_angle_r	ankle_angle_r	subtalar_angle_r	mtp_angle_r	hip_flexion_l	hip_adduction_l	hip_rotation_l	knee_angle_l	ankle_angle_l	subtalar_angle_l	mtp_angle_l	lumbar_extension	lumbar_bending	lumbar_rotation
      4.24000000	    -10.55642699	      1.97266146	     -0.45399183	     -1.76149957	     -0.01280791	      0.39470845	     36.01298668	     -0.95954662	     -1.57957085	    -42.81561976	    -12.33907348	    -15.56399471	     10.78772857	      4.82899170	      5.99757608	     11.57030622	     -7.41992011	      3.16953709	      1.91230749	      6.64024068	      8.72544801	     -0.55922590	     -5.79618452
      4.24500000	    -10.63703976	      1.79725554	     -0.01966619	     -1.75593736	     -0.01320159	      0.39441666	     36.14576095	     -1.00024747	     -1.90059561	    -40.86117228	    -11.86742767	    -14.64482539	     11.03451023	      4.38520512	      5.81336192	     11.87193442	     -7.15441343	      3.38711716	      2.10640152	      6.67501606	      8.75494205	     -0.50110593	     -6.21507749
      4.25000000	    -10.69722685	      1.63668182	      0.43620785	     -1.75038962	     -0.01360969	      0.39414912	     36.21170927	     -1.07318570	     -2.22007764	    -38.83375673	    -11.36691390	    -13.60149324	     11.33846721	      3.94076501	      5.64094372	     12.14982385	     -6.92145205	      3.61424894	      2.33960457	      6.71908998	      8.75536846	     -0.47518897	     -6.64819671
      4.25500000	    -10.74991916	      1.48738464	      0.88743548	     -1.74484591	     -0.01404837	      0.39390541	     36.22585992	     -1.15251830	     -2.48797945	    -36.73864021	    -10.87795845	    -12.46544453	     11.65320895	      3.50945750	      5.47812802	     12.38950940	     -6.72421685	      3.85873252	      2.58756165	      6.77001241	      8.74536083	     -0.45455935	     -7.07496872
      4.26000000	    -10.81692812	      1.34671398	      1.32939179	     -1.73923077	     -0.01454657	      0.39369023	     36.21419853	     -1.24630627	     -2.76836380	    -34.58835372	    -10.40840808	    -11.26453637	     11.98866703	      3.09790857	      5.31889196	     12.59423691	     -6.53827536	      4.10509708	      2.85670161	      6.84222603	      8.75822073	     -0.44516124	     -7.44341950
      4.26500000	    -10.87474209	      1.22181773	      1.77198714	     -1.73357360	     -0.01507147	      0.39348388	     36.15650679	     -1.36344914	     -3.04618965	    -32.40157079	     -9.97276864	     -9.99251433	     12.31662352	      2.68371090	      5.17315296	     12.77621326	     -6.36690581	      4.34695774	      3.14529634	      6.92594221	      8.76571751	     -0.45046125	     -7.78794820
      4.27000000	    -10.94158270	      1.10559197	      2.19697528	     -1.72786222	     -0.01564701	      0.39334450	     36.07293741	     -1.47799165	     -3.29317671	    -30.18529089	     -9.59808550	     -8.69769200	     12.60988615	      2.28740094	      5.03037273	     12.93300768	     -6.21538522	      4.58046399	      3.42389840	      7.02188002	      8.78493173	     -0.47059126	     -8.09710384
      4.27500000	    -10.94613797	      1.02906351	      2.67267353	     -1.72217837	     -0.01620058	      0.39311648	     35.88952165	     -1.66786509	     -3.55684535	    -27.96513848	     -9.20169058	     -7.34092562	     12.86749136	      1.85773465	      4.93895334	     13.08832369	     -6.12786167	      4.82303441	      3.72762744	      7.13462241	      8.72989499	     -0.52536616	     -8.47548453
      4.28000000	    -10.94787155	      0.96154622	      3.13367006	     -1.71643445	     -0.01679555	      0.39296454	     35.67527642	     -1.85534894	     -3.81667622	    -25.74977938	     -8.86519118	     -6.02317636	     13.03480463	      1.43748016	      4.85068736	     13.22416763	     -6.07287893	      5.05727766	      4.00572606	      7.24965672	      8.67394987	     -0.60131473	     -8.80398460
      4.28500000	    -10.92373684	      0.90789685	      3.60570066	     -1.71064243	     -0.01738922	      0.39279606	     35.40986313	     -2.07012275	     -4.11886576	    -23.55903867	     -8.57261962	     -4.69031257	     13.13739319	      0.99577091	      4.77251280	     13.36202871	     -6.03610892	      5.28335113	      4.29571800	      7.37787325	      8.59328846	     -0.68260239	     -9.13369028
      4.29000000	    -10.91642306	      0.84412692	      4.04512790	     -1.70476944	     -0.01803486	      0.39268797	     35.14521149	     -2.25757672	     -4.43427399	    -21.39992130	     -8.36928340	     -3.40954853	     13.18682750	      0.57617651	      4.67527225	     13.50736232	     -6.01696236	      5.50766616	      4.56459485	      7.52283947	      8.54058571	     -0.75127561	     -9.39543941
      4.29500000	    -10.85369516	      0.80930792	      4.52554115	     -1.69889078	     -0.01865699	      0.39255033	     34.80266723	     -2.49324008	     -4.80807808	    -19.29641687	     -8.14827946	     -2.17274029	     13.16499116	      0.12424340	      4.60584220	     13.65446967	     -6.05269262	      5.73559800	      4.85103123	      7.69189259	      8.42561314	     -0.85018461	     -9.70552584
      4.30000000	    -10.77030291	      0.77792161	      4.99543891	     -1.69297104	     -0.01927180	      0.39245744	     34.42914065	     -2.71953126	     -5.21388786	    -17.26133352	     -7.96974142	     -0.98879367	     13.04796215	     -0.33407906	      4.53101820	     13.79518648	     -6.12417245	      5.95418713	      5.13755514	      7.86874510	      8.29064337	     -0.95242331	    -10.00820640
      4.30500000	    -10.67556512	      0.74859479	      5.45894541	     -1.68701278	     -0.01989293	      0.39239548	     34.03955290	     -2.93689038	     -5.65081838	    -15.30901377	     -7.82174411	      0.12972436	     12.86526713	     -0.78638629	      4.45011746	     13.93423569	     -6.23461385	      6.17402226	      5.43049531	      8.06430442	      8.14635162	     -1.05192289	    -10.29561229
